<?xml version="1.0" ?><svg height="24px" version="1.1" viewBox="0 0 24 24" width="24px" xmlns="http://www.w3.org/2000/svg" xmlns:sketch="http://www.bohemiancoding.com/sketch/ns" xmlns:xlink="http://www.w3.org/1999/xlink"><title/><desc/><defs/><g fill="none" fill-rule="evenodd" id="miu" stroke="none" stroke-width="1"><g id="Artboard-1" transform="translate(-827.000000, -119.000000)"><g id="slice" transform="translate(215.000000, 119.000000)"/><path d="M828,130.5 C828,124.148725 833.148725,119 839.5,119 C845.851275,119 851,124.148725 851,130.5 C851,136.851275 845.851275,142 839.5,142 C833.148725,142 828,136.851275 828,130.5 Z M841.834997,124.221458 C841.296415,124.369394 841.916262,125.794538 841.347936,125.675569 C840.785253,125.557782 840.109504,125.003112 839.742384,124.686263 C839.308945,124.312176 840.478579,124.342706 840.696563,124.035023 C840.957828,123.666249 840.731059,123.313515 840.516454,123.244948 C839.700935,122.984387 838.569409,123.595165 838.034366,123.460626 C837.088959,123.222899 837.526408,122.991946 836.508676,122.850105 C836.000853,122.77933 835.446609,123.1456 834.603616,122.979549 C833.575219,122.776978 833.584526,124.705871 833.200012,125.157367 C834.162543,124.317393 836.109011,124.931847 835.918345,125.675569 C835.669103,126.647779 837.447747,128.174325 837.730473,128.872857 C837.878598,129.23883 838.489969,128.476504 838.985433,129.860106 C839.075238,130.290907 839.614831,130.004643 840.078399,130.08904 C840.646125,130.1924 840.969851,130.656349 841.157041,130.762024 C841.725112,131.08272 838.836978,131.7571 841.679331,133.83123 C841.607074,134.863716 841.649686,135.825323 841.539933,135.999424 C841.289535,136.396626 841.422629,136.651259 841.539933,136.777223 C840.861953,136.950822 841.675651,138.394561 842.217912,138.064875 C842.550966,137.862383 842.217912,137.441098 842.507888,137.040405 C842.217912,136.340112 844.631265,134.424357 845.075589,134.091484 C845.075589,134.091484 845.060477,133.249235 845.733197,132.719866 C846.06744,132.456847 845.229477,131.92433 844.656836,132.108307 C844.656836,132.108307 844.622729,131.024823 843.053735,131.160023 C842.453168,131.211773 842.052427,130.834997 842.052427,130.834997 C842.052427,130.834997 841.539933,129.860107 840.977057,129.860107 C840.886195,129.860107 841.04669,129.499052 840.696563,129.315723 C840.421906,129.171911 839.657834,129.162842 839.657834,128.872857 C839.657834,128.582871 840.39879,128.698456 840.860349,128.332153 C840.999032,128.222091 841.203518,128.763305 841.347936,128.641517 C841.512968,128.502345 841.166836,128.247334 841.679331,127.811544 C841.772006,127.73274 842.274929,127.191726 842.702244,126.840994 C842.856488,126.714394 843.159613,126.812039 843.206577,126.684378 C843.38438,126.20106 842.558647,126.607673 842.836594,125.994605 C842.936163,125.774986 844.466008,126.381079 844.553762,126.292931 C844.765607,126.080133 843.422255,126.007813 843.979092,125.675569 C844.215425,125.534558 842.373578,124.073521 841.834997,124.221458 Z" fill="#000000" id="circle-world-global-internet-earth-glyph"/></g></g></svg>